#!OML:ASF H:\Terrain\Patient Classification 1\Takeo\Monday\TakeoMonday.ASF
:FULLY-SPECIFIED
:DEGREES
1571
root 9.83237 17.8225 -0.337524 -6.63292 4.99038 2.03187
lowerback 1.11258 1.2997 3.97596
upperback 1.49829 1.74572 0.742851
thorax 1.01007 0.910266 -1.46651
lowerneck -13.4315 2.03806 -0.168797
upperneck 23.3401 0.893267 8.21893
head 9.55096 1.34449 2.99825
rclavicle -8.19987e-015 4.77083e-015
rhumerus -10.0971 52.6272 -85.5121
rradius 139.053
rwrist -40.4907
rhand -17.9925 21.3974
rfingers 7.12502
rthumb 8.27761 -8.42047
lclavicle -8.19987e-015 4.77083e-015
lhumerus -32.5483 0.50201 83.9558
lradius 39.4589
lwrist 36.1895
lhand -15.4537 33.9978
lfingers 7.12502
lthumb 10.7272 63.7039
rfemur 9.54553 -1.55456 17.9125
rtibia 12.8655
rfoot -15.1184 -22.5533
rtoes 1.79418
lfemur 4.01859 -5.16926 -22.7448
ltibia 17.1789
lfoot -10.6257 13.041
ltoes -6.7324
1572
root 9.841 17.8215 -0.314707 -6.62319 4.83913 2.13207
lowerback 0.856184 1.298 3.74682
upperback 1.54876 1.73004 0.622081
thorax 1.20135 0.904574 -1.45498
lowerneck -12.9572 1.6542 -0.389462
upperneck 23.3951 0.393451 8.29154
head 9.50249 1.09284 2.9956
rclavicle -2.03257e-014 -1.59028e-014
rhumerus -11.5406 51.8209 -86.0626
rradius 139.266
rwrist -40.5396
rhand -17.8243 21.5939
rfingers 7.12502
rthumb 8.43994 -8.21742
lclavicle -2.03257e-014 -1.59028e-014
lhumerus -33.0933 1.33775 84.1139
lradius 39.4331
lwrist 35.6974
lhand -16.1395 32.4682
lfingers 7.12502
lthumb 10.0656 62.2075
rfemur 9.5723 -1.58556 17.7112
rtibia 12.9467
rfoot -15.2897 -22.2715
rtoes 2.06719
lfemur 4.27227 -5.12041 -22.8844
ltibia 16.9657
lfoot -10.9102 13.0248
ltoes -5.78698
1573
root 9.83822 17.828 -0.315604 -6.59807 4.70404 1.90092
lowerback 0.895894 1.27246 3.7391
upperback 1.54808 1.69784 0.624121
thorax 1.17635 0.887968 -1.44979
lowerneck -12.5837 1.27526 -0.657736
upperneck 23.4463 -0.0987782 8.38692
head 9.47273 0.843992 3.01327
rclavicle 2.45002e-014 1.90833e-014
rhumerus -12.8567 51.1005 -86.4418
rradius 139.509
rwrist -40.6343
rhand -17.478 22.2261
rfingers 7.12502
rthumb 8.77412 -7.57151
lclavicle 2.45002e-014 1.90833e-014
lhumerus -33.3843 1.75278 84.3521
lradius 39.198
lwrist 35.5971
lhand -16.1466 31.6464
lfingers 7.12502
lthumb 10.0587 61.386
rfemur 9.51983 -1.26372 18.0518
rtibia 12.8439
rfoot -15.3528 -22.3359
rtoes 3.09567
lfemur 4.2466 -5.20856 -22.602
ltibia 16.9144
lfoot -11.0714 13.0784
ltoes -5.35404
1574
root 9.83517 17.8296 -0.319346 -6.57404 4.50747 1.74157
lowerback 0.943784 1.22693 3.73743
upperback 1.54795 1.64027 0.517022
thorax 1.14944 0.85945 -1.56012
lowerneck -12.3304 0.866921 -0.833504
upperneck 23.4919 -0.656764 8.47305
head 9.47048 0.572969 3.00721
rclavicle -2.1419e-014 7.15625e-015
rhumerus -14.436 50.54 -87.1678
rradius 139.86
rwrist -40.7308
rhand -17.2734 22.4303
rfingers 7.12502
rthumb 8.97155 -7.35898
lclavicle -2.1419e-014 7.15625e-015
lhumerus -33.4419 2.03965 84.3832
lradius 38.7289
lwrist 35.6897
lhand -15.4863 31.9945
lfingers 7.12502
lthumb 10.6957 61.7022
rfemur 9.68681 -1.04155 18.3129
rtibia 12.3358
rfoot -15.0239 -22.4384
rtoes 3.07584
lfemur 4.0733 -5.11051 -22.4195
ltibia 17.1457
lfoot -11.1421 13.2637
ltoes -7.05178
1575
root 9.84256 17.8266 -0.31352 -6.64771 4.26086 1.32787
lowerback 1.05914 1.18788 4.12139
upperback 1.46245 1.59738 0.467235
thorax 1.00735 0.83876 -1.82995
lowerneck -11.9461 0.457969 -1.04279
upperneck 23.7178 -1.22741 8.59039
head 9.50897 0.298013 3.02103
rclavicle -1.02871e-014 3.97569e-015
rhumerus -16.187 49.989 -87.9943
rradius 140.285
rwrist -40.9789
rhand -17.7325 22.0924
rfingers 7.12502
rthumb 8.52848 -7.7154
lclavicle -1.02871e-014 3.97569e-015
lhumerus -33.8317 2.57491 84.3454
lradius 38.5117
lwrist 35.5652
lhand -14.5138 33.0575
lfingers 7.12502
lthumb 11.6337 62.7145
rfemur 10.0008 -1.0682 18.7446
rtibia 11.7767
rfoot -14.5594 -22.4527
rtoes 2.69755
lfemur 4.03118 -4.9113 -21.9932
ltibia 17.4761
lfoot -11.354 13.3552
ltoes -8.71332
1576
root 9.85406 17.829 -0.308846 -6.67162 4.08199 0.916926
lowerback 1.34045 1.17013 4.45079
upperback 1.23877 1.59631 0.526341
thorax 0.627619 0.830001 -1.96339
lowerneck -11.4674 0.126035 -1.1782
upperneck 24.0588 -1.64006 8.41074
head 9.55941 0.0717736 2.93909
rclavicle -3.70733e-014 -7.95139e-015
rhumerus -17.8847 49.2988 -88.5155
rradius 140.595
rwrist -41.3828
rhand -18.7964 21.8091
rfingers 7.12502
rthumb 7.50171 -8.03786
lclavicle -3.70733e-014 -7.95139e-015
lhumerus -34.5489 3.28563 84.454
lradius 38.4301
lwrist 35.1694
lhand -14.4484 31.9246
lfingers 7.12502
lthumb 11.6967 61.5781
rfemur 10.1999 -1.16037 19.134
rtibia 11.2709
rfoot -14.0213 -22.4588
rtoes 1.65057
lfemur 3.91994 -4.98882 -21.5764
ltibia 17.8278
lfoot -11.6472 13.3937
ltoes -7.83502
1577
root 9.86398 17.829 -0.308444 -6.5783 3.97282 0.80568
lowerback 1.4812 1.125 4.42009
upperback 1.10157 1.54756 0.48032
thorax 0.404855 0.798922 -1.99854
lowerneck -11.3715 -0.198088 -1.18496
upperneck 24.5404 -2.06479 8.14189
head 9.73333 -0.147458 2.8091
rclavicle 6.41081e-015 -8.74653e-015
rhumerus -19.4074 48.5436 -89.0228
rradius 140.793
rwrist -41.6905
rhand -19.0987 21.4448
rfingers 7.12502
rthumb 7.20985 -8.41233
lclavicle 6.41081e-015 -8.74653e-015
lhumerus -35.1532 3.93193 84.4723
lradius 38.4687
lwrist 35.021
lhand -15.3995 29.3896
lfingers 7.12502
lthumb 10.7795 59.093
rfemur 10.3401 -1.27147 19.1879
rtibia 10.6968
rfoot -13.4078 -22.3244
rtoes 0.648257
lfemur 3.65456 -5.16312 -21.4851
ltibia 18.1825
lfoot -11.8647 13.4932
ltoes -6.13723
1578
root 9.86896 17.8293 -0.311022 -6.52895 3.78774 0.725452
lowerback 1.61341 1.0224 4.2518
upperback 1.02603 1.41799 0.469009
thorax 0.240349 0.728815 -1.91895
lowerneck -11.1743 -0.468222 -1.43561
upperneck 24.9645 -2.41246 8.0968
head 9.86695 -0.332951 2.80599
rclavicle 1.55797e-014 2.26615e-014
rhumerus -20.8254 47.8998 -89.5129
rradius 141.01
rwrist -41.9867
rhand -18.2593 21.334
rfingers 7.12502
rthumb 8.02009 -8.4938
lclavicle 1.55797e-014 2.26615e-014
lhumerus -35.7956 4.60948 84.4612
lradius 38.9713
lwrist 35.3816
lhand -16.1159 29.4307
lfingers 7.12502
lthumb 10.0883 59.1689
rfemur 10.419 -1.15116 19.2699
rtibia 10.3915
rfoot -13.2528 -22.2565
rtoes 2.03605
lfemur 3.49892 -5.17305 -21.4011
ltibia 18.3896
lfoot -12.0116 13.6108
ltoes -4.98245
1579
root 9.86971 17.8327 -0.312932 -6.50698 3.50471 0.699201
lowerback 1.69488 1.00294 4.06903
upperback 1.03807 1.39345 0.456918
thorax 0.20116 0.715118 -1.83044
lowerneck -10.9349 -0.821742 -1.92317
upperneck 25.1373 -2.85305 8.21543
head 9.91389 -0.572756 2.88455
rclavicle 3.35201e-014 1.03368e-014
rhumerus -22.034 47.3372 -89.8035
rradius 141.298
rwrist -41.949
rhand -18.198 21.4421
rfingers 7.12502
rthumb 8.07928 -8.38346
lclavicle 3.35201e-014 1.03368e-014
lhumerus -36.2037 5.13967 84.5447
lradius 39.3955
lwrist 35.5115
lhand -16.6821 29.6239
lfingers 7.12502
lthumb 9.54204 59.3879
rfemur 10.31 -0.789934 19.3698
rtibia 10.4722
rfoot -13.2851 -22.4099
rtoes 3.42456
lfemur 3.46062 -5.05524 -21.3532
ltibia 18.4466
lfoot -12.0981 13.727
ltoes -4.72931
1580
root 9.87285 17.8335 -0.310838 -6.39056 3.26704 0.66143
lowerback 1.53043 0.9917 3.95306
upperback 1.116 1.36687 0.463162
thorax 0.36864 0.705394 -1.75456
lowerneck -11.0626 -1.2816 -2.18413
upperneck 25.3826 -3.37909 7.85721
head 10.0561 -0.874747 2.74596
rclavicle 9.61621e-015 1.63003e-014
rhumerus -23.2171 47.0243 -90.0502
rradius 141.643
rwrist -41.4126
rhand -18.6075 21.5588
rfingers 7.12502
rthumb 7.68405 -8.28159
lclavicle 9.61621e-015 1.63003e-014
lhumerus -36.2284 5.37929 84.7587
lradius 39.2265
lwrist 35.6348
lhand -17.0352 28.611
lfingers 7.12502
lthumb 9.2014 58.3903
rfemur 10.0414 -0.63898 19.4332
rtibia 10.6614
rfoot -13.0638 -22.4522
rtoes 2.76703
lfemur 3.36274 -4.72822 -21.2856
ltibia 18.4627
lfoot -11.9258 13.7797
ltoes -6.44776
